<svg width="26" height="26" viewBox="0 0 26 26" fill="none" xmlns="http://www.w3.org/2000/svg">
<path d="M20.668 26H5.33203C2.39225 26 0 23.6077 0 20.668C0 20.2469 0.340691 19.9062 0.761719 19.9062H25.2383C25.6593 19.9062 26 20.2469 26 20.668C26 23.6077 23.6077 26 20.668 26Z" fill="#4E5156"/>
<path d="M13 0C5.85965 0 0 4.44234 0 9.90234C0 10.3234 0.340691 10.6641 0.761719 10.6641H25.2383C25.6593 10.6641 26 10.3234 26 9.90234C26 4.44234 20.1404 0 13 0ZM7.394 5.87057L5.87057 7.394C5.57304 7.69153 5.09102 7.69158 4.79345 7.394C4.49592 7.09648 4.49592 6.61441 4.79345 6.31688L6.31688 4.79345C6.61441 4.49592 7.09648 4.49592 7.394 4.79345C7.69153 5.09097 7.69158 5.57304 7.394 5.87057ZM12.0151 5.87057L10.4917 7.394C10.1941 7.69153 9.71212 7.69158 9.41454 7.394C9.11701 7.09648 9.11701 6.61441 9.41454 6.31688L10.938 4.79345C11.2355 4.49592 11.7176 4.49592 12.0151 4.79345C12.3126 5.09097 12.3127 5.57304 12.0151 5.87057ZM16.5854 5.87057L15.062 7.394C14.7644 7.69153 14.2824 7.69158 13.9849 7.394C13.6873 7.09648 13.6873 6.61441 13.9849 6.31688L15.5083 4.79345C15.8058 4.49592 16.2879 4.49592 16.5854 4.79345C16.8829 5.09097 16.883 5.57304 16.5854 5.87057ZM20.7833 5.87057L19.2599 7.394C18.9623 7.69153 18.4803 7.69158 18.1827 7.394C17.8852 7.09648 17.8852 6.61441 18.1827 6.31688L19.7062 4.79345C20.0037 4.49592 20.4858 4.49592 20.7833 4.79345C21.0808 5.09097 21.0808 5.57304 20.7833 5.87057Z" fill="#4E5156"/>
<path d="M0.761719 13.7617C1.12734 13.7617 1.44727 13.8074 1.72148 13.8835C1.61398 14.2299 1.58387 14.3334 1.52344 15.407C1.32539 15.3308 1.08169 15.2852 0.761719 15.2852C0.335105 15.2852 0 14.9499 0 14.5234C0 14.0968 0.335105 13.7617 0.761719 13.7617Z" fill="#4E5156"/>
<path d="M26 14.5234C26 14.9499 25.6649 15.2852 25.2383 15.2852C24.9183 15.2852 24.6746 15.3308 24.4765 15.407C24.4601 15.1146 24.4912 14.5687 24.2785 13.8835C24.5527 13.8074 24.8726 13.7617 25.2383 13.7617C25.6649 13.7617 26 14.0968 26 14.5234Z" fill="#4E5156"/>
<path d="M1.72151 13.8835C2.40705 14.0512 2.86409 14.3863 3.24495 14.6758C3.71721 15.0261 4.06755 15.2851 4.82927 15.2851C5.59099 15.2851 5.9262 15.0261 6.39846 14.6757C6.9469 14.2643 7.66799 13.7617 8.93245 13.7617C10.2121 13.7617 10.8824 14.2644 11.4308 14.6757C11.9032 15.0261 12.2383 15.2851 13 15.2851C13.7617 15.2851 14.0968 15.0261 14.5692 14.6757C15.1177 14.2643 15.788 13.7617 17.0676 13.7617C18.3321 13.7617 19.0532 14.2644 19.6016 14.6757C20.0739 15.0261 20.4091 15.2851 21.1708 15.2851C21.9325 15.2851 22.2828 15.0261 22.7551 14.6757C23.136 14.3863 23.593 14.0512 24.2785 13.8835C24.1179 13.2849 23.8501 12.7328 23.5059 12.2382H2.4942C2.1499 12.7328 1.88218 13.2849 1.72151 13.8835Z" fill="#4E5156"/>
<path d="M23.5165 18.332C24.1008 17.4982 24.4537 16.4919 24.4766 15.407C24.1719 15.5136 23.9435 15.6964 23.6691 15.8945C23.1207 16.3059 22.4504 16.8086 21.1708 16.8086C19.9063 16.8086 19.236 16.3058 18.6875 15.8945C18.2153 15.5441 17.8293 15.2852 17.0676 15.2852C16.3059 15.2852 15.9555 15.5441 15.4833 15.8945C14.9501 16.3059 14.2645 16.8086 13.0001 16.8086C11.7356 16.8086 11.05 16.3058 10.5168 15.8945C10.0446 15.5441 9.69424 15.2852 8.93252 15.2852C8.1708 15.2852 7.78482 15.5441 7.31255 15.8945C6.76411 16.3058 6.0938 16.8086 4.8293 16.8086C3.54966 16.8086 2.87935 16.3058 2.33091 15.8945C2.05659 15.6964 1.82812 15.5136 1.52344 15.407C1.54639 16.4919 1.89927 17.4982 2.48356 18.332H23.5165Z" fill="#4E5156"/>
</svg>
